<?xml version="1.0" encoding="UTF-8"?>
<svg id="Layer_1" data-name="Layer 1" xmlns="http://www.w3.org/2000/svg" viewBox="0 0 437.49 437.49">
  <defs>
    <style>
      .cls-1 {
        fill: #4892cf;
      }

      .cls-2 {
        fill: #fff;
      }

      .cls-3 {
        fill: #fefefe;
      }
    </style>
  </defs>
  <path class="cls-2" d="M419.58,155.97c0-2.65-1.34-5.13-3.56-6.6-.6-.4-1.25-.7-1.92-.92l-48.66-20.36C352.33,58.89,291.41,6.38,218.45,6.38S84.6,58.85,71.46,128.02l-49.36,20.65c-3.42,1.43-5.31,4.98-4.79,8.48l.67,185.21c.01,3.19,1.93,6.07,4.88,7.31l193.19,80.82c.98.41,2.02.62,3.07.62s2.09-.2,3.07-.62l193.19-80.82c2.97-1.24,4.89-4.15,4.88-7.36l-.67-186.33Z"/>
  <g>
    <path class="cls-2" d="M77.31,159.55c0-3.1.11-6.18.31-9.23l-22.02,9.21,22.01,9.21c-.2-3.04-.31-6.1-.31-9.19Z"/>
    <path class="cls-2" d="M381.24,159.57l-21.93-9.18c.2,3.03.31,6.08.31,9.16s-.11,6.15-.31,9.19l21.93-9.18Z"/>
    <path class="cls-1" d="M267.21,159.55c0-26.92-21.82-48.75-48.75-48.75s-48.75,21.82-48.75,48.75,21.82,48.75,48.75,48.75,48.75-21.82,48.75-48.75ZM218.46,142.72c9.3,0,16.84,7.54,16.84,16.84s-7.54,16.84-16.84,16.84-16.84-7.54-16.84-16.84,7.54-16.84,16.84-16.84Z"/>
    <path class="cls-1" d="M216.24,86.22c0-3.31-2.69-6-6-6-39.21,0-71.11,31.9-71.11,71.11,0,3.31,2.69,6,6,6s6-2.69,6-6c0-32.59,26.52-59.11,59.11-59.11,3.31,0,6-2.69,6-6Z"/>
    <path class="cls-1" d="M110.24,151.33c0,3.31,2.69,6,6,6s6-2.69,6-6c0-48.52,39.48-88,88-88,3.31,0,6-2.69,6-6s-2.69-6-6-6c-55.14,0-100,44.86-100,100Z"/>
    <circle class="cls-3" cx="218.46" cy="159.55" r="16.84"/>
    <polygon class="cls-2" points="224.46 351.59 224.46 401.2 393.83 330.35 393.65 280.8 224.46 351.59"/>
    <polygon class="cls-2" points="44.33 330.33 212.46 400.67 212.46 351.05 44.15 280.64 44.33 330.33"/>
    <polygon class="cls-2" points="44.11 267.61 212.46 338.05 212.46 297.78 43.96 227.28 44.11 267.61"/>
    <polygon class="cls-2" points="224.46 241.42 224.46 284.7 393.41 214.02 393.25 170.8 224.46 241.42"/>
    <polygon class="cls-2" points="43.76 170.84 43.91 214.26 212.46 284.77 212.46 241.42 43.76 170.84"/>
    <polygon class="cls-2" points="224.46 338.58 393.6 267.82 393.45 227.01 224.46 297.71 224.46 338.58"/>
    <path d="M408.21,159.52c0-2.5-1.27-4.84-3.36-6.22-.57-.38-1.18-.66-1.81-.87l-45.9-19.2c-12.37-65.29-69.84-114.82-138.68-114.82s-126.26,49.49-138.66,114.75l-46.56,19.48c-3.23,1.35-5.01,4.69-4.52,8l.63,174.72c.01,3.01,1.83,5.73,4.61,6.89l182.25,76.25c.93.39,1.91.58,2.89.58s1.97-.19,2.89-.58l182.25-76.25c2.8-1.17,4.62-3.91,4.61-6.95l-.64-175.78ZM393.6,267.82l-169.14,70.76v-40.87l168.99-70.7.15,40.81ZM393.41,214.02l-168.94,70.68v-43.28l168.79-70.62.16,43.22ZM359.3,150.39l21.93,9.18-21.93,9.18c.2-3.04.31-6.1.31-9.19s-.11-6.13-.31-9.16ZM210.24,51.33c3.31,0,6,2.69,6,6s-2.69,6-6,6c-48.52,0-88,39.48-88,88,0,3.31-2.69,6-6,6s-6-2.69-6-6c0-55.14,44.86-100,100-100ZM151.13,151.33c0,3.31-2.69,6-6,6s-6-2.69-6-6c0-39.21,31.9-71.11,71.11-71.11,3.31,0,6,2.69,6,6s-2.69,6-6,6c-32.59,0-59.11,26.52-59.11,59.11ZM77.62,150.32c-.2,3.05-.31,6.13-.31,9.23s.11,6.15.31,9.19l-22.01-9.21,22.02-9.21ZM212.46,400.67l-168.13-70.34-.18-49.69,168.31,70.41v49.62ZM212.46,338.05l-168.35-70.43-.15-40.33,168.5,70.5v40.27ZM212.46,284.77L43.91,214.26l-.16-43.42,168.71,70.58v43.35ZM218.46,208.3c-26.92,0-48.75-21.82-48.75-48.75s21.82-48.75,48.75-48.75,48.75,21.82,48.75,48.75-21.82,48.75-48.75,48.75ZM224.46,401.2v-49.62l169.19-70.78.18,49.54-169.36,70.86Z"/>
  </g>
</svg>